<?xml version="1.0" ?>
<svg xmlns="http://www.w3.org/2000/svg" width="1000" height="420" viewBox="0 0 1000 420">
  <rect width="1000" height="420" fill="#1a1a2e"/>
  <rect x="30" y="160" width="160" height="90" fill="#2e2e4e" stroke="#00d4ff" stroke-width="3" rx="10" ry="10"/>
  <text x="110.0" y="192.5" fill="#ffffff" font-family="Arial, sans-serif" font-size="18" font-weight="bold" text-anchor="middle" dominant-baseline="middle">Telegram</text>
  <text x="110.0" y="217.5" fill="#ffffff" font-family="Arial, sans-serif" font-size="18" font-weight="bold" text-anchor="middle" dominant-baseline="middle">Trigger</text>
  <defs>
    <marker id="arrowhead_00d4ff" markerWidth="10" markerHeight="10" refX="9" refY="3" orient="auto" markerUnits="strokeWidth">
      <path d="M0,0 L0,6 L9,3 z" fill="#00d4ff"/>
    </marker>
    <marker id="arrowhead_ff6b35" markerWidth="10" markerHeight="10" refX="9" refY="3" orient="auto" markerUnits="strokeWidth">
      <path d="M0,0 L0,6 L9,3 z" fill="#ff6b35"/>
    </marker>
    <marker id="arrowhead_7b2cbf" markerWidth="10" markerHeight="10" refX="9" refY="3" orient="auto" markerUnits="strokeWidth">
      <path d="M0,0 L0,6 L9,3 z" fill="#7b2cbf"/>
    </marker>
  </defs>
  <line x1="210" y1="205" x2="270" y2="205" stroke="#00d4ff" stroke-width="3" marker-end="url(#arrowhead_00d4ff)"/>
  <rect x="290" y="160" width="140" height="90" fill="#2e2e4e" stroke="#ff6b35" stroke-width="3" rx="10" ry="10"/>
  <text x="360.0" y="192.5" fill="#ff6b35" font-family="Arial, sans-serif" font-size="18" font-weight="bold" text-anchor="middle" dominant-baseline="middle">n8n</text>
  <text x="360.0" y="217.5" fill="#ff6b35" font-family="Arial, sans-serif" font-size="18" font-weight="bold" text-anchor="middle" dominant-baseline="middle">Logic</text>
  <line x1="450" y1="205" x2="510" y2="205" stroke="#ff6b35" stroke-width="3" marker-end="url(#arrowhead_ff6b35)"/>
  <rect x="530" y="160" width="140" height="90" fill="#2e2e4e" stroke="#7b2cbf" stroke-width="3" rx="10" ry="10"/>
  <text x="600.0" y="192.5" fill="#ffffff" font-family="Arial, sans-serif" font-size="18" font-weight="bold" text-anchor="middle" dominant-baseline="middle">MAC</text>
  <text x="600.0" y="217.5" fill="#ffffff" font-family="Arial, sans-serif" font-size="18" font-weight="bold" text-anchor="middle" dominant-baseline="middle">Filter</text>
  <line x1="690" y1="205" x2="750" y2="205" stroke="#7b2cbf" stroke-width="3" marker-end="url(#arrowhead_7b2cbf)"/>
  <rect x="770" y="160" width="160" height="90" fill="#2e2e4e" stroke="#00bfa5" stroke-width="3" rx="10" ry="10"/>
  <text x="850.0" y="192.5" fill="#00bfa5" font-family="Arial, sans-serif" font-size="18" font-weight="bold" text-anchor="middle" dominant-baseline="middle">GitHub</text>
  <text x="850.0" y="217.5" fill="#00bfa5" font-family="Arial, sans-serif" font-size="18" font-weight="bold" text-anchor="middle" dominant-baseline="middle">Pages UI</text>
</svg>