<?xml version="1.0" ?>
<svg xmlns="http://www.w3.org/2000/svg" width="800" height="420" viewBox="0 0 800 420">
  <rect width="800" height="420" fill="#1a1a2e"/>
  <rect x="80" y="60" width="240" height="80" fill="#3a3a3a" stroke="#6b6b6b" stroke-width="3" rx="10" ry="10"/>
  <text x="200.0" y="100.0" fill="#cccccc" font-family="Arial, sans-serif" font-size="18" font-weight="bold" text-anchor="middle" dominant-baseline="middle">Static Rules</text>
  <defs>
    <marker id="arrowhead_6b6b6b" markerWidth="10" markerHeight="10" refX="9" refY="3" orient="auto" markerUnits="strokeWidth">
      <path d="M0,0 L0,6 L9,3 z" fill="#6b6b6b"/>
    </marker>
    <marker id="arrowhead_ff4444" markerWidth="10" markerHeight="10" refX="9" refY="3" orient="auto" markerUnits="strokeWidth">
      <path d="M0,0 L0,6 L9,3 z" fill="#ff4444"/>
    </marker>
    <marker id="arrowhead_00d4ff" markerWidth="10" markerHeight="10" refX="9" refY="3" orient="auto" markerUnits="strokeWidth">
      <path d="M0,0 L0,6 L9,3 z" fill="#00d4ff"/>
    </marker>
    <marker id="arrowhead_00bfa5" markerWidth="10" markerHeight="10" refX="9" refY="3" orient="auto" markerUnits="strokeWidth">
      <path d="M0,0 L0,6 L9,3 z" fill="#00bfa5"/>
    </marker>
  </defs>
  <line x1="200" y1="140" x2="200" y2="180" stroke="#6b6b6b" stroke-width="3" marker-end="url(#arrowhead_6b6b6b)"/>
  <rect x="80" y="180" width="240" height="70" fill="#3a3a3a" stroke="#6b6b6b" stroke-width="3" rx="10" ry="10"/>
  <text x="200.0" y="215.0" fill="#999999" font-family="Arial, sans-serif" font-size="18" font-weight="bold" text-anchor="middle" dominant-baseline="middle">Hard-Coded</text>
  <line x1="200" y1="250" x2="200" y2="290" stroke="#ff4444" stroke-width="3" marker-end="url(#arrowhead_ff4444)"/>
  <rect x="120" y="290" width="160" height="60" fill="#4a1a1a" stroke="#ff4444" stroke-width="3" rx="10" ry="10"/>
  <text x="200.0" y="320.0" fill="#ff4444" font-family="Arial, sans-serif" font-size="18" font-weight="bold" text-anchor="middle" dominant-baseline="middle">BREAKS ✗</text>
  <rect x="480" y="60" width="240" height="80" fill="#2e2e4e" stroke="#00d4ff" stroke-width="3" rx="10" ry="10"/>
  <text x="600.0" y="100.0" fill="#00d4ff" font-family="Arial, sans-serif" font-size="18" font-weight="bold" text-anchor="middle" dominant-baseline="middle">Dynamic AI</text>
  <line x1="600" y1="140" x2="600" y2="180" stroke="#00d4ff" stroke-width="3" marker-end="url(#arrowhead_00d4ff)"/>
  <rect x="480" y="180" width="240" height="70" fill="#2e2e4e" stroke="#7b2cbf" stroke-width="3" rx="10" ry="10"/>
  <text x="600.0" y="215.0" fill="#ffffff" font-family="Arial, sans-serif" font-size="18" font-weight="bold" text-anchor="middle" dominant-baseline="middle">Adaptive</text>
  <line x1="600" y1="250" x2="600" y2="290" stroke="#00bfa5" stroke-width="3" marker-end="url(#arrowhead_00bfa5)"/>
  <rect x="520" y="290" width="160" height="60" fill="#1a3a2a" stroke="#00bfa5" stroke-width="3" rx="10" ry="10"/>
  <text x="600.0" y="320.0" fill="#00bfa5" font-family="Arial, sans-serif" font-size="18" font-weight="bold" text-anchor="middle" dominant-baseline="middle">ADAPTS ✓</text>
</svg>