<?xml version="1.0" ?>
<svg xmlns="http://www.w3.org/2000/svg" width="1000" height="380" viewBox="0 0 1000 380">
  <rect width="1000" height="380" fill="#1a1a2e"/>
  <rect x="30" y="80" width="150" height="80" fill="#2e2e4e" stroke="#00d4ff" stroke-width="3" rx="10" ry="10"/>
  <text x="105.0" y="107.5" fill="#ffffff" font-family="Arial, sans-serif" font-size="18" font-weight="bold" text-anchor="middle" dominant-baseline="middle">Commit</text>
  <text x="105.0" y="132.5" fill="#ffffff" font-family="Arial, sans-serif" font-size="18" font-weight="bold" text-anchor="middle" dominant-baseline="middle">(37+)</text>
  <defs>
    <marker id="arrowhead_00d4ff" markerWidth="10" markerHeight="10" refX="9" refY="3" orient="auto" markerUnits="strokeWidth">
      <path d="M0,0 L0,6 L9,3 z" fill="#00d4ff"/>
    </marker>
    <marker id="arrowhead_00bfa5" markerWidth="10" markerHeight="10" refX="9" refY="3" orient="auto" markerUnits="strokeWidth">
      <path d="M0,0 L0,6 L9,3 z" fill="#00bfa5"/>
    </marker>
    <marker id="arrowhead_7b2cbf" markerWidth="10" markerHeight="10" refX="9" refY="3" orient="auto" markerUnits="strokeWidth">
      <path d="M0,0 L0,6 L9,3 z" fill="#7b2cbf"/>
    </marker>
  </defs>
  <line x1="200" y1="120" x2="260" y2="120" stroke="#00d4ff" stroke-width="3" marker-end="url(#arrowhead_00d4ff)"/>
  <rect x="280" y="80" width="150" height="80" fill="#2e2e4e" stroke="#00bfa5" stroke-width="3" rx="10" ry="10"/>
  <text x="355.0" y="107.5" fill="#ffffff" font-family="Arial, sans-serif" font-size="18" font-weight="bold" text-anchor="middle" dominant-baseline="middle">GitHub</text>
  <text x="355.0" y="132.5" fill="#ffffff" font-family="Arial, sans-serif" font-size="18" font-weight="bold" text-anchor="middle" dominant-baseline="middle">Actions</text>
  <line x1="450" y1="120" x2="510" y2="120" stroke="#00bfa5" stroke-width="3" marker-end="url(#arrowhead_00bfa5)"/>
  <rect x="530" y="80" width="150" height="80" fill="#2e2e4e" stroke="#7b2cbf" stroke-width="3" rx="10" ry="10"/>
  <text x="605.0" y="107.5" fill="#ffffff" font-family="Arial, sans-serif" font-size="18" font-weight="bold" text-anchor="middle" dominant-baseline="middle">CI/CD</text>
  <text x="605.0" y="132.5" fill="#ffffff" font-family="Arial, sans-serif" font-size="18" font-weight="bold" text-anchor="middle" dominant-baseline="middle">Deploy</text>
  <line x1="700" y1="120" x2="760" y2="120" stroke="#7b2cbf" stroke-width="3" marker-end="url(#arrowhead_7b2cbf)"/>
  <rect x="780" y="80" width="150" height="80" fill="#1a3a2a" stroke="#00bfa5" stroke-width="3" rx="10" ry="10"/>
  <text x="855.0" y="107.5" fill="#00bfa5" font-family="Arial, sans-serif" font-size="18" font-weight="bold" text-anchor="middle" dominant-baseline="middle">Live</text>
  <text x="855.0" y="132.5" fill="#00bfa5" font-family="Arial, sans-serif" font-size="18" font-weight="bold" text-anchor="middle" dominant-baseline="middle">Site</text>
  <rect x="130" y="250" width="180" height="70" fill="#2e2e4e" stroke="#00bfa5" stroke-width="3" rx="10" ry="10"/>
  <text x="220.0" y="285.0" fill="#00bfa5" font-family="Arial, sans-serif" font-size="18" font-weight="bold" text-anchor="middle" dominant-baseline="middle">Compliance</text>
  <rect x="380" y="250" width="180" height="70" fill="#2e2e4e" stroke="#00d4ff" stroke-width="3" rx="10" ry="10"/>
  <text x="470.0" y="285.0" fill="#00d4ff" font-family="Arial, sans-serif" font-size="18" font-weight="bold" text-anchor="middle" dominant-baseline="middle">Accuracy</text>
  <rect x="630" y="250" width="180" height="70" fill="#2e2e4e" stroke="#FFD700" stroke-width="3" rx="10" ry="10"/>
  <text x="720.0" y="285.0" fill="#FFD700" font-family="Arial, sans-serif" font-size="18" font-weight="bold" text-anchor="middle" dominant-baseline="middle">Self-Growth</text>
</svg>